<svg width="156" height="161" viewBox="0 0 156 161" fill="none" xmlns="http://www.w3.org/2000/svg">
<path d="M99.3553 19.4398C91.8509 30.6018 85.8565 41 70.114 41H54.3793C53.0659 41 52 40.2397 52 39.3029V38.4544L58.1774 19.4398C64.1292 9.44843 66.7169 8.85024 81.2081 3.59165C86.9011 3.59165 93.595 1.48827 99.3553 1.48827C104.171 1.48827 107.806 -0.337475 111 0.0553905C106.723 7.53851 101.634 16.0506 99.3553 19.4398Z" fill="url(#paint0_linear_205_67)"/>
<path d="M77.447 11.409C77.2932 11.0755 76.8567 10.913 76.4742 11.0469C76.0894 11.1789 75.9012 11.5565 76.0527 11.89C76.0669 11.9205 77.4327 15.0126 76.0287 19.2713C76.0287 19.2713 76.0279 19.2759 76.0279 19.2785C75.1166 19.9954 74.1836 20.7546 73.2198 21.5905C72.2021 22.4726 71.2765 23.3267 70.411 24.1567C71.1595 18.1878 70.0375 13.6736 69.9827 13.4591C69.8927 13.1087 69.4922 12.8897 69.088 12.9651C68.6837 13.0431 68.4287 13.3902 68.5179 13.7405C68.5322 13.7964 69.8852 19.2453 68.6154 25.9364C66.9204 27.6881 65.5779 29.2774 64.5173 30.656C65.0491 25.5211 64.0343 21.4618 63.9825 21.259C63.8925 20.9087 63.495 20.6831 63.0878 20.7657C62.6835 20.843 62.4285 21.1901 62.5178 21.5405C62.5328 21.597 63.9315 27.2279 62.5538 33.4335C61.5165 35.0507 61.089 36.0257 61.0462 36.1251C60.9037 36.4618 61.1017 36.8349 61.4902 36.9591C61.5757 36.9864 61.6635 37 61.7497 37C62.0542 37 62.3407 36.8375 62.4533 36.5756C62.463 36.5535 62.8283 35.7293 63.7163 34.3214C71.545 32.5495 78.713 34.3545 78.7858 34.3727C78.857 34.3909 78.929 34.4 79.0003 34.4C79.3235 34.4 79.6213 34.218 79.7188 33.9359C79.8373 33.5927 79.6123 33.2307 79.2155 33.1273C78.923 33.0506 72.4001 31.4042 64.7498 32.7789C65.8119 31.2735 67.3044 29.3872 69.331 27.2409C69.37 27.237 69.409 27.2357 69.4465 27.2273C77.393 25.3495 85.4722 27.2084 85.5532 27.2273C85.6192 27.2422 85.6852 27.25 85.7505 27.25C86.0805 27.25 86.3835 27.0602 86.4743 26.771C86.583 26.4246 86.3475 26.0677 85.9477 25.9728C85.629 25.8974 78.5968 24.2841 70.9383 25.5984C71.9441 24.6078 73.0488 23.5776 74.2804 22.5096C75.3379 21.5931 76.3632 20.7592 77.3577 19.9876C82.1969 18.9158 86.997 20.063 87.045 20.0754C87.1133 20.0916 87.1823 20.1001 87.2505 20.1001C87.5775 20.1001 87.8775 19.9135 87.9713 19.6275C88.0846 19.283 87.855 18.9236 87.456 18.8248C87.2768 18.7812 83.7809 17.9362 79.601 18.3184C85.9995 13.7548 90.4554 12.2774 90.5101 12.2598C90.8986 12.1357 91.0967 11.7613 90.9534 11.4252C90.8101 11.0879 90.3789 10.9189 89.9911 11.0404C89.7466 11.1184 84.8872 12.7174 77.9397 17.8205C78.6455 14.0779 77.5032 11.5305 77.447 11.409Z" fill="#394240"/>
<path d="M103.975 154.295C93.7582 155.471 83.4386 153.736 74.3215 149.31C65.2045 144.884 57.6995 137.965 52.7557 129.43C47.8118 120.894 45.6512 111.124 46.5469 101.355C47.4426 91.5869 51.3545 82.2586 57.7878 74.55L98.3173 105.119L103.975 154.295Z" fill="url(#paint1_radial_205_67)"/>
<path d="M50.2947 35.2078C60.9587 32.4074 72.194 32.906 82.378 36.6317C92.562 40.3574 101.168 47.1173 106.952 55.9352C112.736 64.753 115.399 75.1724 114.558 85.6884C113.716 96.2044 109.412 106.273 102.268 114.439L62.8675 83.0845L50.2947 35.2078Z" fill="url(#paint2_radial_205_67)"/>
<path d="M106.826 143.047C98.007 144.899 88.8693 144.097 80.7325 140.758C72.5957 137.419 65.881 131.716 61.5583 124.471C57.2355 117.227 55.5284 108.817 56.6835 100.455C57.8386 92.0936 61.7962 84.2137 67.9845 77.9535L98.7095 104.39L106.826 143.047Z" fill="#6FCA78"/>
<path d="M56.9785 43.6375C65.2811 42.3248 73.759 43.3297 81.3402 46.5252C88.9214 49.7207 95.2653 54.9633 99.5698 61.5901C103.874 68.2168 105.946 75.93 105.523 83.7544C105.1 91.5787 102.201 99.1627 97.1929 105.547L63.1475 82.6528L56.9785 43.6375Z" fill="#6FB4CA"/>
<defs>
<linearGradient id="paint0_linear_205_67" x1="96.25" y1="9.72838" x2="54.1208" y2="40.375" gradientUnits="userSpaceOnUse">
<stop stop-color="#96FFA0"/>
<stop offset="0.558334" stop-color="#96FFA0" stop-opacity="0.356741"/>
<stop offset="1" stop-color="#96FFA0" stop-opacity="0"/>
</linearGradient>
<radialGradient id="paint1_radial_205_67" cx="0" cy="0" r="1" gradientUnits="userSpaceOnUse" gradientTransform="translate(98.3173 105.119) rotate(173.436) scale(52 49.5)">
<stop stop-color="#96FFA0"/>
<stop offset="1" stop-color="#96FFA0" stop-opacity="0"/>
</radialGradient>
<radialGradient id="paint2_radial_205_67" cx="0" cy="0" r="1" gradientUnits="userSpaceOnUse" gradientTransform="translate(62.8675 83.0845) rotate(-14.7141) scale(52 49.5)">
<stop stop-color="#96D9FF"/>
<stop offset="1" stop-color="#96D9FF" stop-opacity="0"/>
</radialGradient>
</defs>
</svg>
